<svg width="132" height="46" viewBox="0 0 132 46" fill="none" xmlns="http://www.w3.org/2000/svg">
<g clip-path="url(#clip0_2151_1148)">
<path d="M9.33949 4.45312C9.2732 3.83286 8.99384 3.34991 8.50142 3.00426C8.01373 2.65862 7.37926 2.4858 6.59801 2.4858C6.04877 2.4858 5.57765 2.56866 5.18466 2.73438C4.79167 2.90009 4.491 3.125 4.28267 3.40909C4.07434 3.69318 3.9678 4.01752 3.96307 4.3821C3.96307 4.68513 4.03172 4.94792 4.16903 5.17045C4.31108 5.39299 4.50284 5.58239 4.74432 5.73864C4.9858 5.89015 5.25331 6.01799 5.54688 6.12216C5.84044 6.22633 6.13636 6.31392 6.43466 6.38494L7.7983 6.72585C8.34754 6.85369 8.87547 7.02651 9.3821 7.24432C9.89347 7.46212 10.3504 7.73674 10.7528 8.06818C11.16 8.39962 11.482 8.79972 11.7188 9.26847C11.9555 9.73722 12.0739 10.2865 12.0739 10.9162C12.0739 11.7685 11.8561 12.5189 11.4205 13.1676C10.9848 13.8116 10.3551 14.3158 9.53125 14.6804C8.71212 15.0402 7.72017 15.2202 6.5554 15.2202C5.42377 15.2202 4.44129 15.045 3.60795 14.6946C2.77936 14.3442 2.13068 13.8329 1.66193 13.1605C1.19792 12.4882 0.94697 11.669 0.909091 10.7031H3.50142C3.5393 11.2098 3.69555 11.6312 3.97017 11.9673C4.24479 12.3035 4.60227 12.5545 5.04261 12.7202C5.48769 12.8859 5.98485 12.9688 6.53409 12.9688C7.10701 12.9688 7.6089 12.8835 8.03977 12.7131C8.47538 12.5379 8.81629 12.2964 9.0625 11.9886C9.30871 11.6761 9.43419 11.3116 9.43892 10.8949C9.43419 10.5161 9.32292 10.2036 9.10511 9.95739C8.88731 9.70644 8.58191 9.49811 8.18892 9.33239C7.80066 9.16193 7.34612 9.01042 6.82528 8.87784L5.17045 8.4517C3.97254 8.14394 3.02557 7.67756 2.32955 7.05256C1.63826 6.42282 1.29261 5.58712 1.29261 4.54545C1.29261 3.68845 1.52462 2.93797 1.98864 2.29403C2.45739 1.65009 3.09422 1.15057 3.89915 0.795454C4.70407 0.435605 5.61553 0.255681 6.63352 0.255681C7.66572 0.255681 8.57008 0.435605 9.34659 0.795454C10.1278 1.15057 10.741 1.64536 11.1861 2.27983C11.6312 2.90956 11.8608 3.634 11.875 4.45312H9.33949ZM13.7837 2.66335V0.454545H25.3888V2.66335H20.8931V15H18.2795V2.66335H13.7837ZM36.7951 0.454545H39.43V9.95739C39.43 10.9991 39.1838 11.9152 38.6914 12.706C38.2037 13.4967 37.5172 14.1146 36.6317 14.5597C35.7463 15 34.7118 15.2202 33.5281 15.2202C32.3396 15.2202 31.3027 15 30.4173 14.5597C29.5318 14.1146 28.8453 13.4967 28.3576 12.706C27.8699 11.9152 27.6261 10.9991 27.6261 9.95739V0.454545H30.261V9.73722C30.261 10.3433 30.3936 10.883 30.6587 11.3565C30.9286 11.83 31.3074 12.2017 31.7951 12.4716C32.2828 12.7367 32.8604 12.8693 33.5281 12.8693C34.1957 12.8693 34.7733 12.7367 35.261 12.4716C35.7534 12.2017 36.1322 11.83 36.3974 11.3565C36.6625 10.883 36.7951 10.3433 36.7951 9.73722V0.454545ZM47.223 15H42.294V0.454545H47.3224C48.7666 0.454545 50.0071 0.745738 51.044 1.32812C52.0857 1.90578 52.8859 2.73674 53.4446 3.82102C54.0033 4.9053 54.2827 6.20265 54.2827 7.71307C54.2827 9.22822 54.0009 10.5303 53.4375 11.6193C52.8788 12.7083 52.0715 13.544 51.0156 14.1264C49.9645 14.7088 48.7003 15 47.223 15ZM44.929 12.7202H47.0952C48.1084 12.7202 48.9536 12.5355 49.6307 12.1662C50.3078 11.7921 50.8168 11.2358 51.1577 10.4972C51.4986 9.75379 51.669 8.82576 51.669 7.71307C51.669 6.60038 51.4986 5.67708 51.1577 4.94318C50.8168 4.20455 50.3125 3.65294 49.6449 3.28835C48.982 2.91903 48.1581 2.73438 47.1733 2.73438H44.929V12.7202ZM54.9716 0.454545H57.9474L61.5057 6.8892H61.6477L65.206 0.454545H68.1818L62.8906 9.57386V15H60.2628V9.57386L54.9716 0.454545ZM9.33949 28.4531C9.2732 27.8329 8.99384 27.3499 8.50142 27.0043C8.01373 26.6586 7.37926 26.4858 6.59801 26.4858C6.04877 26.4858 5.57765 26.5687 5.18466 26.7344C4.79167 26.9001 4.491 27.125 4.28267 27.4091C4.07434 27.6932 3.9678 28.0175 3.96307 28.3821C3.96307 28.6851 4.03172 28.9479 4.16903 29.1705C4.31108 29.393 4.50284 29.5824 4.74432 29.7386C4.9858 29.8902 5.25331 30.018 5.54688 30.1222C5.84044 30.2263 6.13636 30.3139 6.43466 30.3849L7.7983 30.7259C8.34754 30.8537 8.87547 31.0265 9.3821 31.2443C9.89347 31.4621 10.3504 31.7367 10.7528 32.0682C11.16 32.3996 11.482 32.7997 11.7188 33.2685C11.9555 33.7372 12.0739 34.2865 12.0739 34.9162C12.0739 35.7685 11.8561 36.5189 11.4205 37.1676C10.9848 37.8116 10.3551 38.3158 9.53125 38.6804C8.71212 39.0402 7.72017 39.2202 6.5554 39.2202C5.42377 39.2202 4.44129 39.045 3.60795 38.6946C2.77936 38.3442 2.13068 37.8329 1.66193 37.1605C1.19792 36.4882 0.94697 35.669 0.909091 34.7031H3.50142C3.5393 35.2098 3.69555 35.6312 3.97017 35.9673C4.24479 36.3035 4.60227 36.5545 5.04261 36.7202C5.48769 36.8859 5.98485 36.9688 6.53409 36.9688C7.10701 36.9688 7.6089 36.8835 8.03977 36.7131C8.47538 36.5379 8.81629 36.2964 9.0625 35.9886C9.30871 35.6761 9.43419 35.3116 9.43892 34.8949C9.43419 34.5161 9.32292 34.2036 9.10511 33.9574C8.88731 33.7064 8.58191 33.4981 8.18892 33.3324C7.80066 33.1619 7.34612 33.0104 6.82528 32.8778L5.17045 32.4517C3.97254 32.1439 3.02557 31.6776 2.32955 31.0526C1.63826 30.4228 1.29261 29.5871 1.29261 28.5455C1.29261 27.6884 1.52462 26.938 1.98864 26.294C2.45739 25.6501 3.09422 25.1506 3.89915 24.7955C4.70407 24.4356 5.61553 24.2557 6.63352 24.2557C7.66572 24.2557 8.57008 24.4356 9.34659 24.7955C10.1278 25.1506 10.741 25.6454 11.1861 26.2798C11.6312 26.9096 11.8608 27.634 11.875 28.4531H9.33949ZM13.7837 26.6634V24.4545H25.3888V26.6634H20.8931V39H18.2795V26.6634H13.7837ZM39.9787 31.7273C39.9787 33.2945 39.6851 34.6368 39.098 35.7543C38.5156 36.867 37.7202 37.7192 36.7116 38.3111C35.7079 38.9029 34.5691 39.1989 33.2955 39.1989C32.0218 39.1989 30.8807 38.9029 29.8722 38.3111C28.8684 37.7145 28.0729 36.8598 27.4858 35.7472C26.9034 34.6297 26.6122 33.2898 26.6122 31.7273C26.6122 30.16 26.9034 28.8201 27.4858 27.7074C28.0729 26.59 28.8684 25.7353 29.8722 25.1435C30.8807 24.5516 32.0218 24.2557 33.2955 24.2557C34.5691 24.2557 35.7079 24.5516 36.7116 25.1435C37.7202 25.7353 38.5156 26.59 39.098 27.7074C39.6851 28.8201 39.9787 30.16 39.9787 31.7273ZM37.3295 31.7273C37.3295 30.6241 37.1567 29.6937 36.8111 28.9361C36.4702 28.1738 35.9967 27.5985 35.3906 27.2102C34.7846 26.8172 34.0862 26.6207 33.2955 26.6207C32.5047 26.6207 31.8063 26.8172 31.2003 27.2102C30.5942 27.5985 30.1184 28.1738 29.7727 28.9361C29.4318 29.6937 29.2614 30.6241 29.2614 31.7273C29.2614 32.8305 29.4318 33.7633 29.7727 34.5256C30.1184 35.2831 30.5942 35.8584 31.2003 36.2514C31.8063 36.6397 32.5047 36.8338 33.2955 36.8338C34.0862 36.8338 34.7846 36.6397 35.3906 36.2514C35.9967 35.8584 36.4702 35.2831 36.8111 34.5256C37.1567 33.7633 37.3295 32.8305 37.3295 31.7273ZM42.4698 39V24.4545H47.9244C49.0418 24.4545 49.9793 24.6487 50.7369 25.0369C51.4992 25.4252 52.0745 25.9697 52.4627 26.6705C52.8557 27.3665 53.0522 28.1785 53.0522 29.1065C53.0522 30.0393 52.8533 30.849 52.4556 31.5355C52.0626 32.2173 51.4826 32.7453 50.7156 33.1193C49.9485 33.4886 49.0063 33.6733 47.8888 33.6733H44.0039V31.4858H47.5337C48.1871 31.4858 48.7222 31.3958 49.1388 31.2159C49.5555 31.0312 49.8633 30.7637 50.0621 30.4134C50.2657 30.0582 50.3675 29.6226 50.3675 29.1065C50.3675 28.5904 50.2657 28.1501 50.0621 27.7855C49.8585 27.4162 49.5484 27.1368 49.1317 26.9474C48.7151 26.7533 48.1777 26.6562 47.5195 26.6562H45.1048V39H42.4698ZM49.984 32.4091L53.5849 39H50.6445L47.1076 32.4091H49.984ZM57.3455 39H54.533L59.6538 24.4545H62.9066L68.0344 39H65.2219L61.337 27.4375H61.2234L57.3455 39ZM57.4379 33.2969H65.1083V35.4134H57.4379V33.2969ZM79.011 29.0994C78.8926 28.7159 78.7293 28.3726 78.521 28.0696C78.3174 27.7618 78.0711 27.4991 77.7823 27.2812C77.4982 27.0634 77.1715 26.9001 76.8022 26.7912C76.4329 26.6776 76.0304 26.6207 75.5948 26.6207C74.8136 26.6207 74.1175 26.8172 73.5067 27.2102C72.896 27.6032 72.4154 28.1809 72.065 28.9432C71.7193 29.7008 71.5465 30.6241 71.5465 31.7131C71.5465 32.8116 71.7193 33.742 72.065 34.5043C72.4106 35.2666 72.8912 35.8466 73.5067 36.2443C74.1223 36.6373 74.8372 36.8338 75.6516 36.8338C76.3903 36.8338 77.0295 36.6918 77.5692 36.4077C78.1138 36.1236 78.5328 35.7211 78.8263 35.2003C79.1199 34.6747 79.2667 34.0592 79.2667 33.3537L79.8633 33.446H75.9144V31.3864H81.8164V33.1335C81.8164 34.3788 81.5513 35.456 81.021 36.3651C80.4906 37.2741 79.7615 37.9749 78.8335 38.4673C77.9054 38.955 76.8401 39.1989 75.6374 39.1989C74.2975 39.1989 73.1209 38.8982 72.1076 38.2969C71.0991 37.6908 70.3107 36.8314 69.7425 35.7188C69.1791 34.6013 68.8974 33.2756 68.8974 31.7415C68.8974 30.5672 69.0631 29.5185 69.3945 28.5952C69.7307 27.6719 70.1995 26.8883 70.8008 26.2443C71.4021 25.5956 72.1076 25.1032 72.9173 24.767C73.7269 24.4261 74.6076 24.2557 75.5593 24.2557C76.3642 24.2557 77.1147 24.3741 77.8107 24.6108C78.5067 24.8428 79.1246 25.1742 79.6644 25.6051C80.2089 26.036 80.6564 26.5473 81.0067 27.1392C81.3571 27.7311 81.5868 28.3845 81.6957 29.0994H79.011ZM84.3643 39V24.4545H93.8246V26.6634H86.9993V30.6122H93.3345V32.821H86.9993V36.7912H93.8814V39H84.3643Z" fill="black"/>
</g>
<defs>
<clipPath id="clip0_2151_1148">
<rect width="131.309" height="46" fill="white"/>
</clipPath>
</defs>
</svg>
